<svg xmlns="http://www.w3.org/2000/svg" xmlns:xlink="http://www.w3.org/1999/xlink" version="1.1" style="enable-background:new 0 0 489.9 489.9;" xml:space="preserve" width="489.9" height="489.9"><rect id="backgroundrect" width="100%" height="100%" x="0" y="0" fill="none" stroke="none"/>
















<g class="currentLayer" style=""><title>Layer 1</title><g id="svg_1" class="selected" fill="#6d6d6d" fill-opacity="1">
	<g id="svg_2" fill="#6d6d6d" fill-opacity="1">
		<path d="M360.97847183334267,273.03798318216366 H91.8212128644468 c-50.00483416970215,0 -91.3212128644468,41.754354595424964 -91.3212128644468,92.28926698049186 s41.316378694744664,92.28926698049186 91.3212128644468,92.28926698049186 h269.249689346289 c50.00483416970215,0 91.3212128644468,-41.754354595424964 91.3212128644468,-92.28926698049186 C452.39211507518263,314.88574796684014 410.98330600304485,273.03798318216366 360.97847183334267,273.03798318216366 zM360.97847183334267,419.78539049628586 H91.8212128644468 c-29.855011897992227,0 -53.88691002021506,-24.286649205392596 -53.88691002021506,-54.45814033363032 s24.031898122222845,-54.45814033363032 53.88691002021506,-54.45814033363032 h269.249689346289 c29.855011897992227,0 53.88691002021506,24.286649205392596 53.88691002021506,54.45814033363032 C414.8653818535578,395.4987412908933 390.8334837313349,419.78539049628586 360.97847183334267,419.78539049628586 z" id="svg_3" fill="#6d6d6d" fill-opacity="1"/>
		<path d="M100.41723796201113,233.24524256102046 h251.96520877376724 c10.537063022820787,0 18.301214723846634,-8.78055778964194 19.22551849777828,-19.429319364314075 V19.429319364314075 C371.6079652335566,8.78055778964194 362.9195097585992,0 352.38244673577833,0 H100.41723796201113 C89.88017493919037,0 81.19171946423285,8.78055778964194 81.19171946423285,19.429319364314075 v194.3866038323923 C81.19171946423285,224.46468477137847 89.88017493919037,233.24524256102046 100.41723796201113,233.24524256102046 zM119.64275645978942,38.85863872862815 h214.4384755521423 v156.46206699627922 h-214.4384755521423 V38.85863872862815 z" id="svg_4" fill="#6d6d6d" fill-opacity="1"/>
		<path d="M238.87794329697198,65.10690190830246 c-7.671721323632679,-7.753045707875331 -19.22551849777828,-7.753045707875331 -26.897239821410956,0 s-7.671721323632679,19.429319364314075 0,27.182365072189405 l4.80637962444457,4.857329841078519 h-26.897239821410956 c-10.537063022820787,0 -19.22551849777828,8.78055778964194 -19.22551849777828,19.429319364314075 s8.688455474957491,19.429319364314075 19.22551849777828,19.429319364314075 h26.897239821410956 l-4.80637962444457,4.857329841078519 c-7.671721323632679,7.753045707875331 -7.671721323632679,19.429319364314075 0,27.182365072189405 c3.8820758505129214,3.92322794856342 14.881290760299533,10.835581953175158 26.897239821410956,0 l37.52673322162491,-37.924536836113056 c4.066936605299252,-3.4561770023058696 10.814354155000279,-15.225860847996127 0,-27.182365072189405 L238.87794329697198,65.10690190830246 z" id="svg_5" fill="#6d6d6d" fill-opacity="1"/>
		<circle cx="345.63502354457484" cy="365.7943068102186" r="18.513787737610755" id="svg_6" fill="#6d6d6d" fill-opacity="1"/>
		<circle cx="107.1646569220878" cy="365.7943068102186" r="18.513787737610755" id="svg_7" fill="#6d6d6d" fill-opacity="1"/>
	</g>
</g><g id="svg_8">
</g><g id="svg_9">
</g><g id="svg_10">
</g><g id="svg_11">
</g><g id="svg_12">
</g><g id="svg_13">
</g><g id="svg_14">
</g><g id="svg_15">
</g><g id="svg_16">
</g><g id="svg_17">
</g><g id="svg_18">
</g><g id="svg_19">
</g><g id="svg_20">
</g><g id="svg_21">
</g><g id="svg_22">
</g></g></svg>