<svg xmlns="http://www.w3.org/2000/svg" viewBox="0 0 31.79 35.01"><defs><style>.cls-1{fill:#757575;fill-rule:evenodd;}</style></defs><g id="Layer_2" data-name="Layer 2"><g id="Layer_1-2" data-name="Layer 1"><path class="cls-1" d="M11.44,2.85C9.23,5,2.53,12.18,2.11,20.26c-.23,4.48,2,7.39,5,8.76a10.31,10.31,0,0,0,3.48.88A11.64,11.64,0,0,0,11.66,32h-.22a12.5,12.5,0,0,1-5.22-1.12C2.51,29.23-.26,25.63,0,20.16.56,9.6,10.71.65,10.74.62l.7-.62.7.62a38.9,38.9,0,0,1,9.18,12.87,12.64,12.64,0,0,0-2.15.28A36.15,36.15,0,0,0,11.44,2.85Zm9.37,16.5L18.25,24l4.46,2-1.82,5.86L26.23,26l-3.71-2.6L25,19.46l-4.23-.11ZM22,15.43a9.78,9.78,0,1,0,6.93,2.87A9.72,9.72,0,0,0,22,15.43Zm5.6,4.19a7.92,7.92,0,1,0,2.32,5.6,7.9,7.9,0,0,0-2.32-5.6ZM11.51,6.33l-.8-.67A38.07,38.07,0,0,0,6.36,12a19.18,19.18,0,0,0-2.51,7.8A8.18,8.18,0,0,0,6.77,26.9a11.06,11.06,0,0,0,1.87,1.25l.5-.92a9.58,9.58,0,0,1-1.69-1.14,7.17,7.17,0,0,1-2.55-6.2,18.31,18.31,0,0,1,2.38-7.37A37.78,37.78,0,0,1,11.51,6.33Z"/></g></g></svg>