<svg xmlns="http://www.w3.org/2000/svg" viewBox="0 0 30.75 30"><defs><style>.cls-1{fill:none;stroke:#757575;stroke-miterlimit:10;stroke-width:1.11px;}</style></defs><g id="Layer_2" data-name="Layer 2"><g id="Icon"><path class="cls-1" d="M25.32,11h2.61a2.09,2.09,0,0,0,2.16-2h0a2.09,2.09,0,0,0-2.16-2H22.32"/><path class="cls-1" d="M25.32,19H28a2.08,2.08,0,0,0,2.15-2h0A2.08,2.08,0,0,0,28,15H26.32"/><path class="cls-1" d="M5.32,15H2.71A2.08,2.08,0,0,1,.56,13h0a2.08,2.08,0,0,1,2.15-2H6.32"/><path class="cls-1" d="M10.32,24H2.88A2.09,2.09,0,0,1,.72,22h0a2.09,2.09,0,0,1,2.16-2H6.32"/><path class="cls-1" d="M1.37,30h0a2.08,2.08,0,0,1,2.15-2H27.21a2.09,2.09,0,0,0,2.16-2h0a2.09,2.09,0,0,0-2.16-2H20.32"/><line class="cls-1" x1="26.82" y1="27.5" x2="26.82" y2="25.5"/><line class="cls-1" x1="23.82" y1="27.5" x2="23.82" y2="25.5"/><line class="cls-1" x1="20.82" y1="27.5" x2="20.82" y2="25.5"/><line class="cls-1" x1="16.82" y1="27.5" x2="16.82" y2="25.5"/><line class="cls-1" x1="13.82" y1="27.5" x2="13.82" y2="25.5"/><line class="cls-1" x1="10.82" y1="27.5" x2="10.82" y2="25.5"/><line class="cls-1" x1="6.82" y1="27.5" x2="6.82" y2="25.5"/><line class="cls-1" x1="3.82" y1="27.5" x2="3.82" y2="25.5"/><line class="cls-1" x1="26.82" y1="23.5" x2="26.82" y2="21.5"/><line class="cls-1" x1="23.82" y1="23.5" x2="23.82" y2="21.5"/><line class="cls-1" x1="6.82" y1="23.5" x2="6.82" y2="21.5"/><line class="cls-1" x1="3.82" y1="23.5" x2="3.82" y2="21.5"/><line class="cls-1" x1="26.82" y1="19.5" x2="26.82" y2="16.5"/><line class="cls-1" x1="3.82" y1="19.5" x2="3.82" y2="16.5"/><line class="cls-1" x1="26.82" y1="15.5" x2="26.82" y2="12.5"/><line class="cls-1" x1="3.82" y1="15.5" x2="3.82" y2="12.5"/><line class="cls-1" x1="26.82" y1="10.5" x2="26.82" y2="8.5"/><line class="cls-1" x1="6.82" y1="9.5" x2="6.82" y2="8.5"/><line class="cls-1" x1="3.82" y1="10.5" x2="3.82" y2="8.5"/><line class="cls-1" x1="26.82" y1="6.5" x2="26.82" y2="4.5"/><line class="cls-1" x1="23.82" y1="6.5" x2="23.82" y2="4.5"/><line class="cls-1" x1="20.82" y1="6.5" x2="20.82" y2="4.5"/><line class="cls-1" x1="16.82" y1="5.5" x2="16.82" y2="4.5"/><line class="cls-1" x1="13.82" y1="5.5" x2="13.82" y2="4.5"/><path class="cls-1" d="M10.32,6H3.52A2.08,2.08,0,0,1,1.37,4h0A2.08,2.08,0,0,1,3.52,2H27.21a2.09,2.09,0,0,0,2.16-2"/><line class="cls-1" x1="10.82" y1="4.5" x2="10.82" y2="5.5"/><line class="cls-1" x1="6.82" y1="6.5" x2="6.82" y2="4.5"/><line class="cls-1" x1="3.82" y1="6.5" x2="3.82" y2="4.5"/><ellipse class="cls-1" cx="15.66" cy="14.84" rx="8.97" ry="8.33"/><path class="cls-1" d="M18.91,19.49a2.8,2.8,0,0,1-4.9.25c-1-1.67-.33-3.86.83-5.31.85-1.06,2-2.36.58-4.19a5.18,5.18,0,0,1,2.8,2.64,5,5,0,0,1,.25,3.23c-.38,1.17-1.35,1.79-1.32,2.7S18.21,19.87,18.91,19.49Z"/><path class="cls-1" d="M15.72,21.18c-3.53.69-5-3.45-3.41-5.9a3.71,3.71,0,0,0,.82-3.21,2.52,2.52,0,0,1,.7,1"/></g></g></svg>