<svg xmlns="http://www.w3.org/2000/svg" viewBox="0 0 34.34 37.68"><defs><style>.cls-1{fill:#757575;fill-rule:evenodd;}</style></defs><g id="Layer_2" data-name="Layer 2"><g id="Layer_1-2" data-name="Layer 1"><path class="cls-1" d="M11.58,2.38C14,.76,17.85,0,21.57,0c3.89,0,7.75.84,9.9,2.4l.33.23V33.11h2.54v4.57H0V33.11H2.08V7.86l.53-.35a18.16,18.16,0,0,1,8.62-2.39V2.61l.35-.23ZM32.79,34.66H1.55v1.47H32.79V34.66Zm-9.36-1.58h6.82V3.43C28.3,2.2,25,1.55,21.57,1.55a18.31,18.31,0,0,0-8.79,1.9V5.07h0c4,0,7.91.86,10.13,2.47l.49.35V33.08ZM6.75,8.19V9.36L9,9V7.68a17.45,17.45,0,0,0-2.29.51Zm3.46-.66v20.3H9v-2l-2.29.4v2.43H5.58V8.58a11.51,11.51,0,0,0-1.17.55V32.92H21.1V9.11C19.2,8,16.05,7.4,12.81,7.4a24.87,24.87,0,0,0-2.6.13ZM9,24.68V22.51l-2.29.4v2.17L9,24.68Zm0-3.35V19.4l-2.29.4v1.93L9,21.33Zm0-3.11V16.13l-2.29.4v2.09L9,18.22ZM9,15V13l-2.29.4v1.92L9,15Zm0-3.1V10.13l-2.29.41v1.71Z"/></g></g></svg>