<svg xmlns="http://www.w3.org/2000/svg" viewBox="0 0 30.5 30.5"><defs><style>.cls-1{fill:#757575;stroke:#757575;stroke-miterlimit:10;stroke-width:0.5px;}</style></defs><g id="Layer_2" data-name="Layer 2"><g id="Layer_2-2" data-name="Layer 2"><path class="cls-1" d="M15.6,4.79l1.12-.88a.5.5,0,0,0,0-.82.9.9,0,0,0-1,0L14.56,4a.5.5,0,0,0,0,.82.85.85,0,0,0,.52.17A.87.87,0,0,0,15.6,4.79Z"/><path class="cls-1" d="M19.49,21.13h4.16c3.64,0,6.6-2.32,6.6-5.17s-3-5.18-6.6-5.18h-6.2L17.1,10a.76.76,0,0,0-.7-.4h-.59V8.47a6,6,0,0,0,3-1.17,3.73,3.73,0,0,0,1.54-2.92C20.34,2.1,18,.25,15.08.25a6,6,0,0,0-3.72,1.21A3.71,3.71,0,0,0,9.81,4.38c0,2.08,2,3.81,4.53,4.09V9.58h-.58a.74.74,0,0,0-.7.4l-.35.81H5.35a.85.85,0,0,0-.52.17L.47,14.39a.49.49,0,0,0,0,.81.87.87,0,0,0,1,0l4.15-3.26h6.55l-.6,1.42H6.71a.87.87,0,0,0-.52.16L.47,18a.53.53,0,0,0-.22.41v6.89a.6.6,0,0,0,.45.53.93.93,0,0,0,.29.05.87.87,0,0,0,.52-.17l7.7-6L12,22.52v2.87H9.36a.67.67,0,0,0-.73.58v2.82a.66.66,0,0,0,.73.57h10.7v.31a.54.54,0,0,0,.32.48.86.86,0,0,0,.41.1.93.93,0,0,0,.29-.05l3.81-1.26a.6.6,0,0,0,.45-.53V28h1.24a.59.59,0,1,0,0-1.15H25.34v-.46a.6.6,0,0,0-.45-.53l-3.81-1.26a.9.9,0,0,0-.7.05.56.56,0,0,0-.32.48v.31H18.12V22.52ZM11.28,4.38a2.66,2.66,0,0,1,1.12-2.1,4.27,4.27,0,0,1,2.68-.88c2.09,0,3.79,1.34,3.79,3a2.66,2.66,0,0,1-1.11,2.1,4.37,4.37,0,0,1-2.68.87C13,7.35,11.28,6,11.28,4.38Zm3,6.36h1.59L17,13.35H13.16Zm3.66,1.2h5.71c2.83,0,5.13,1.81,5.13,4s-2.3,4-5.13,4h-3l.83-.83h0a.49.49,0,0,0,.15-.35V13.93a.66.66,0,0,0-.73-.57H18.55ZM1.72,18.66,7,14.51H20.14v1.35h-8a.67.67,0,0,0-.73.58.67.67,0,0,0,.73.58h8v1.21H9.28a.83.83,0,0,0-.52.17l-7,5.52Zm17.65.72L17,21.75H13.13l-2.35-2.37ZM21.53,26l2.34.78V28l-2.34.77h0V26Zm-1.47,2.26h-10V26.54h10Zm-6.55-2.82V22.9h3.14v2.49Z"/></g></g></svg>