<svg xmlns="http://www.w3.org/2000/svg" viewBox="0 0 29.93 33.54"><defs><style>.cls-1,.cls-2{fill:#757575;}.cls-1{fill-rule:evenodd;}.cls-2{font-size:10px;font-family:Roboto-Bold, Roboto;font-weight:700;}</style></defs><g id="Layer_2" data-name="Layer 2"><g id="Layer_1-2" data-name="Layer 1"><path class="cls-1" d="M0,2.07H13.8V0h2.33V2.07h13.8V4.4H0V2.07ZM10,23a5.21,5.21,0,0,0,6.23,2l.22,1.53a6.72,6.72,0,0,1-3.82.1,6.65,6.65,0,0,1-3.93-2.9l-1.26.73L7.88,23l.41-1.44L9.74,22l1.45.37L10,23Zm9.68-.24a5.18,5.18,0,0,0-1.36-6.41l1.21-.95a6.72,6.72,0,0,1,2,3.26A6.63,6.63,0,0,1,21,23.53l1.26.72-1.46.37L19.38,25,19,23.55l-.41-1.44,1.15.66Zm-5-8.26a5.19,5.19,0,0,0-4.87,4.38l-1.43-.58A6.76,6.76,0,0,1,10.2,15,6.67,6.67,0,0,1,14.68,13V11.55l1,1.07,1,1.07-1,1.07-1,1.08V14.51ZM3.19,6.65H2.34l.08.85L4.81,32.84l.07.7H24.75l.07-.7L27.2,7.5l.09-.85H3.19ZM8.94,8.2H4L6.29,32H23.34L25.59,8.2H8.94Z"/><text class="cls-2" transform="translate(11.73 23.33)">2</text></g></g></svg>