<svg xmlns="http://www.w3.org/2000/svg" xmlns:xlink="http://www.w3.org/1999/xlink" style="enable-background:new 0 0 59 59;" version="1.1" xml:space="preserve" width="59" height="57"><rect id="backgroundrect" width="100%" height="100%" x="0" y="0" fill="none" stroke="none"/><g class="currentLayer" style=""><title>Layer 1</title><g id="svg_1" class="" fill="#eb1a1a" fill-opacity="1"><path d="M59,39.20359283685684 V13.203592836856842 h-9 c-0.553,0 -1,0.4470000000000002 -1,1 s0.4470000000000002,1 1,1 h7 v22 H11 V15.203592836856842 h7 c0.553,0 1,-0.4470000000000002 1,-1 s-0.4470000000000002,-1 -1,-1 h-7 V5.203592836856842 c0,-0.553 -0.4470000000000002,-1 -1,-1 H7.8580000000000005 C7.411,2.4835928368568427 5.859,1.203592836856842 4,1.203592836856842 C1.794,1.203592836856842 0,2.9975928368568425 0,5.203592836856842 s1.794,4 4,4 c1.859,0 3.411,-1.28 3.858,-3 H9 v7 v1 v24 v1 v6 c0,0.553 0.4470000000000002,1 1,1 h7.031 C15.806000000000001,47.11559283685684 15,48.562592836856844 15,50.20359283685684 c0,2.757 2.243,5 5,5 s5,-2.243 5,-5 c0,-1.641 -0.806,-3.088 -2.031,-4 h18.062 C39.806,47.11559283685684 39,48.562592836856844 39,50.20359283685684 c0,2.757 2.243,5 5,5 s5,-2.243 5,-5 c0,-1.641 -0.806,-3.088 -2.031,-4 H53 c0.553,0 1,-0.4470000000000002 1,-1 s-0.4470000000000002,-1 -1,-1 H11 v-5 H59 zM4,7.203592836856842 C2.8970000000000002,7.203592836856842 2,6.306592836856842 2,5.203592836856842 s0.8970000000000004,-2 2,-2 c0.7370000000000003,0 1.375,0.405 1.722,1 H5 C4.447,4.203592836856842 4,4.650592836856842 4,5.203592836856842 s0.4470000000000002,1 1,1 h0.7220000000000003 C5.375,6.798592836856843 4.737,7.203592836856842 4,7.203592836856842 zM20,53.20359283685684 c-1.6540000000000006,0 -3,-1.346 -3,-3 s1.346,-3 3,-3 s3,1.346 3,3 S21.654,53.20359283685684 20,53.20359283685684 zM44,53.20359283685684 c-1.6540000000000006,0 -3,-1.346 -3,-3 s1.346,-3 3,-3 s3,1.346 3,3 S45.654,53.20359283685684 44,53.20359283685684 z" id="svg_2" fill="#eb1a1a" fill-opacity="1"/><path d="M34,28.203592836856842 c7.72,0 14,-6.28 14,-14 S41.72,0.20359283685684204 34,0.20359283685684204 S20,6.483592836856841 20,14.203592836856842 S26.28,28.203592836856842 34,28.203592836856842 zM34,2.203592836856842 c6.617,0 12,5.383 12,12 s-5.383,12 -12,12 s-12,-5.383 -12,-12 S27.383,2.203592836856842 34,2.203592836856842 z" id="svg_3" fill="#eb1a1a" fill-opacity="1"/><path d="M33,15.203592836856842 v7 c0,0.553 0.4470000000000002,1 1,1 s1,-0.4470000000000002 1,-1 v-7 h7 c0.553,0 1,-0.4470000000000002 1,-1 s-0.4470000000000002,-1 -1,-1 h-7 V6.203592836856842 c0,-0.553 -0.4470000000000002,-1 -1,-1 s-1,0.4470000000000002 -1,1 v7 h-7 c-0.553,0 -1,0.4470000000000002 -1,1 s0.4470000000000002,1 1,1 H33 z" id="svg_4" fill="#eb1a1a" fill-opacity="1"/></g><g id="svg_5" class=""/><g id="svg_6" class=""/><g id="svg_7" class=""/><g id="svg_8" class=""/><g id="svg_9" class=""/><g id="svg_10" class=""/><g id="svg_11" class=""/><g id="svg_12" class=""/><g id="svg_13" class=""/><g id="svg_14" class=""/><g id="svg_15" class=""/><g id="svg_16" class=""/><g id="svg_17" class=""/><g id="svg_18" class=""/><g id="svg_19" class=""/></g></svg>